<svg width="161" height="59" viewBox="0 0 161 59" fill="none" xmlns="http://www.w3.org/2000/svg">
<g filter="url(#filter0_d_1_2566)">
<path d="M46.1127 35.4314C46.1037 35.3484 46.0903 35.2826 46.0901 35.2169C46.0891 33.0703 46.0891 30.9238 46.0901 28.7774C46.0901 25.7747 46.0901 22.7719 46.0901 19.769C46.0901 19.4564 46.0901 19.4561 46.3963 19.4566C48.3824 19.4602 50.3673 19.4492 52.3526 19.4746C53.2031 19.4856 54.0477 19.6053 54.8634 19.869C55.3839 20.0382 55.8804 20.2622 56.3256 20.5872C56.8548 20.9684 57.2654 21.492 57.5097 22.0974C57.626 22.388 57.712 22.6898 57.7666 22.998C57.8549 23.4749 57.8571 23.9532 57.8219 24.4306C57.8028 24.6878 57.7236 24.9424 57.6678 25.1974C57.6092 25.4672 57.4919 25.7138 57.3596 25.9537C57.1296 26.3724 56.8339 26.7358 56.447 27.0203C56.4224 27.0345 56.3987 27.0501 56.3759 27.0671C56.3031 27.1345 56.3143 27.1928 56.4086 27.2338C57.0991 27.5347 57.5957 28.0387 57.9342 28.7037C58.1678 29.1613 58.3069 29.6614 58.3432 30.1741C58.3887 30.7668 58.3483 31.3629 58.2234 31.944C58.0275 32.8482 57.615 33.6326 56.905 34.24C56.4805 34.6037 55.9926 34.8643 55.4589 35.0288C55.1335 35.1294 54.8026 35.228 54.467 35.2827C54.0347 35.3532 53.5953 35.4119 53.1584 35.4175C51.7094 35.4359 50.2602 35.4287 48.8108 35.4304C47.9837 35.4312 47.1561 35.4312 46.3281 35.4304L46.1127 35.4314ZM49.8857 30.4832V32.1429C49.8857 32.1772 49.8847 32.2115 49.8857 32.2458C49.8898 32.3257 49.933 32.3722 50.0117 32.383C50.0515 32.3869 50.0916 32.3884 50.1316 32.3873C50.8611 32.3873 51.5909 32.39 52.3204 32.3861C52.6226 32.3844 52.9231 32.3636 53.2185 32.2866C53.7683 32.1433 54.1312 31.8065 54.2737 31.2564C54.4278 30.6622 54.4107 30.0718 54.1912 29.4918C54.0333 29.0762 53.7195 28.8282 53.3137 28.698C53.0433 28.6123 52.7596 28.579 52.4714 28.5813C51.6849 28.5873 50.8981 28.5828 50.1115 28.5835C49.9042 28.5835 49.8852 28.6037 49.8852 28.8074C49.8853 29.3652 49.8855 29.9236 49.8857 30.4826V30.4832ZM49.8857 24.3126C49.8857 24.8262 49.8847 25.3399 49.8857 25.8535C49.8857 26.0382 49.9158 26.0697 50.0896 26.0697C50.7231 26.0697 51.3566 26.072 51.9891 26.0649C52.3216 26.0612 52.6481 26.0066 52.9539 25.8688C53.2358 25.7419 53.4625 25.5532 53.6162 25.2763C53.7532 25.0295 53.8085 24.7661 53.8169 24.4901C53.829 24.0939 53.7984 23.7071 53.6164 23.3411C53.4534 23.0136 53.182 22.8217 52.8572 22.6972C52.6276 22.6091 52.3831 22.5734 52.136 22.5707C51.4512 22.5628 50.7668 22.5555 50.0829 22.5487C50.0543 22.548 50.0256 22.55 49.9973 22.5547C49.9347 22.5662 49.8946 22.6019 49.889 22.6684C49.8857 22.7139 49.8848 22.7596 49.8847 22.8056C49.8851 23.3077 49.8855 23.8099 49.8857 24.3121V24.3126Z" fill="white"/>
<path d="M134.466 27.6631V20.2136C134.466 20.0267 134.486 20.0053 134.668 20.0015C134.736 20.0002 134.805 20.0015 134.873 20.0015H146.445C146.513 20.0015 146.582 19.9983 146.65 20.005C146.754 20.0151 146.78 20.0494 146.765 20.1502C146.696 20.601 146.625 21.0515 146.557 21.5025C146.513 21.7956 146.471 22.0893 146.43 22.3827C146.392 22.6478 146.355 22.9133 146.314 23.178C146.297 23.2892 146.257 23.3223 146.144 23.3334C146.092 23.3384 146.041 23.3356 145.99 23.3356H138.595C138.572 23.3356 138.549 23.3356 138.526 23.3356C138.359 23.3404 138.329 23.3699 138.33 23.5414C138.335 24.3064 138.34 25.0714 138.347 25.8363C138.349 26.0293 138.376 26.05 138.567 26.05C140.861 26.0492 143.154 26.0492 145.448 26.05C145.482 26.05 145.517 26.0516 145.551 26.0546C145.619 26.0608 145.655 26.0994 145.653 26.1671C145.651 26.2297 145.644 26.2921 145.637 26.3546C145.616 26.5588 145.594 26.763 145.574 26.9673C145.517 27.5233 145.461 28.0795 145.406 28.6359C145.392 28.7721 145.387 28.9091 145.376 29.0456C145.364 29.1792 145.342 29.1999 145.208 29.2107C145.169 29.2138 145.129 29.2128 145.089 29.2128L138.55 29.2099C138.385 29.2099 138.355 29.2406 138.353 29.4311C138.347 30.1161 138.342 30.8011 138.338 31.4861C138.338 31.5947 138.336 31.7031 138.336 31.8119C138.336 31.9995 138.358 32.0213 138.54 32.0227C138.625 32.0227 138.711 32.0227 138.797 32.0227H146.379C146.465 32.0227 146.551 32.0208 146.636 32.0208C146.789 32.0208 146.825 32.0505 146.82 32.1964C146.815 32.3615 146.802 32.5267 146.786 32.6913C146.767 32.8957 146.743 33.0996 146.721 33.3038C146.669 33.7915 146.617 34.2793 146.565 34.7671C146.55 34.9091 146.54 35.0514 146.527 35.1934C146.515 35.3223 146.502 35.3352 146.37 35.3433C146.324 35.3462 146.279 35.3448 146.233 35.3448C142.404 35.3448 138.576 35.3448 134.747 35.3448C134.409 35.3448 134.467 35.3105 134.467 35.0632C134.467 32.597 134.467 30.1307 134.467 27.6645L134.466 27.6631Z" fill="white"/>
<path d="M123.287 26.6103C123.389 26.4342 123.496 26.2536 123.598 26.0705C123.792 25.7229 123.986 25.3753 124.176 25.0244C124.365 24.6736 124.546 24.3195 124.737 23.9698C125.056 23.3854 125.381 22.8037 125.701 22.2207C126.105 21.4821 126.509 20.7429 126.912 20.0031C126.966 19.9033 127.032 19.8083 127.08 19.7058C127.131 19.5972 127.212 19.5567 127.327 19.5631C127.395 19.5669 127.464 19.5643 127.532 19.5643C128.656 19.5643 129.781 19.5647 130.905 19.5657C130.98 19.5657 131.077 19.5269 131.128 19.608C131.179 19.692 131.098 19.7541 131.059 19.8203C130.565 20.6525 130.073 21.4861 129.576 22.3166C129.051 23.1957 128.517 24.0705 127.992 24.9502C127.487 25.7957 126.99 26.6461 126.487 27.4927C126.044 28.2368 125.599 28.9796 125.154 29.7211C124.867 30.199 124.577 30.6747 124.293 31.1542C123.982 31.6777 123.673 32.2025 123.371 32.7308C123.258 32.9277 123.211 32.9424 123.084 32.7246C122.528 31.7708 121.967 30.8194 121.403 29.8703C121.159 29.4588 120.907 29.0529 120.665 28.6408C120.198 27.8463 119.735 27.0493 119.27 26.2538C119.207 26.1456 119.141 26.0386 119.073 25.9338C119.05 25.8995 119.015 25.8746 118.964 25.8242C118.948 25.8928 118.934 25.9286 118.933 25.9645C118.931 26.0674 118.933 26.1703 118.933 26.2731C118.933 29.1966 118.933 32.1199 118.933 35.0432C118.933 35.0832 118.934 35.1233 118.931 35.1633C118.924 35.249 118.878 35.2991 118.79 35.3056C118.762 35.3078 118.733 35.3068 118.705 35.3068H115.435C115.254 35.3068 115.229 35.2814 115.226 35.0991C115.225 35.0077 115.226 34.9163 115.226 34.8248C115.226 29.8232 115.226 24.8217 115.226 19.8201C115.226 19.7858 115.224 19.7515 115.227 19.7172C115.237 19.6013 115.27 19.571 115.388 19.5651C115.416 19.5636 115.445 19.5651 115.474 19.5651C116.683 19.5651 117.893 19.5691 119.103 19.561C119.279 19.5598 119.373 19.6231 119.452 19.7692C119.806 20.4249 120.168 21.0761 120.524 21.7303C121.009 22.6201 121.489 23.5128 121.975 24.4016C122.36 25.1047 122.753 25.8053 123.142 26.5067C123.172 26.5594 123.193 26.6257 123.287 26.6103Z" fill="white"/>
<path d="M95.0392 31.0474V31.3046C95.0392 32.0982 95.0392 32.8918 95.0392 33.6855C95.0392 33.9022 95.0326 34.1191 95.0319 34.3359C95.0319 34.4463 94.9848 34.5225 94.8809 34.5588C94.4403 34.7152 94.0029 34.881 93.5579 35.0232C93.2218 35.1305 92.878 35.2159 92.5339 35.2945C92.2736 35.3538 92.0074 35.3874 91.7435 35.4316C91.7043 35.4382 91.6632 35.4346 91.6237 35.4428C90.9767 35.58 90.3168 35.5777 89.6636 35.5688C89.1313 35.5616 88.5906 35.5736 88.0629 35.4467C87.8202 35.3884 87.5664 35.3749 87.3248 35.3126C86.7941 35.1754 86.2756 35.004 85.7872 34.7502C85.2049 34.4494 84.6797 34.049 84.2353 33.567C83.8267 33.1221 83.4915 32.615 83.2422 32.0646C82.9366 31.3948 82.7618 30.6911 82.6579 29.9655C82.442 28.4587 82.4569 26.9493 82.6055 25.4384C82.6556 24.9158 82.7472 24.3979 82.8794 23.8898C83.1101 23.0115 83.5218 22.2285 84.0963 21.5263C84.4907 21.0464 84.9637 20.6373 85.4951 20.3163C86.0923 19.9521 86.7381 19.699 87.4175 19.5285C87.7832 19.4371 88.1537 19.3802 88.5259 19.3227C89.3217 19.2001 90.1209 19.2097 90.9157 19.2686C92.0457 19.3524 93.1526 19.5716 94.2202 19.9644C94.4177 20.0371 94.6129 20.116 94.8078 20.1959C94.9007 20.2342 94.9276 20.2911 94.8934 20.388C94.7973 20.6562 94.6963 20.9225 94.597 21.1895C94.5098 21.4239 94.4237 21.6586 94.3347 21.8925C94.2558 22.0997 94.1727 22.3051 94.0933 22.5121C94.0419 22.6447 93.9856 22.776 93.9481 22.9125C93.8943 23.1082 93.7988 23.1318 93.6399 23.0391C93.4558 22.9319 93.2494 22.8611 93.0485 22.7851C92.5488 22.5965 92.0254 22.5063 91.4968 22.4634C91.0654 22.4291 90.6306 22.4197 90.1976 22.4223C89.9011 22.4262 89.6052 22.4496 89.3118 22.4924C88.9265 22.5459 88.5641 22.681 88.2083 22.8388C87.7063 23.0617 87.3694 23.4491 87.106 23.9121C86.835 24.3893 86.6891 24.911 86.6068 25.4492C86.4654 26.3871 86.4231 27.3374 86.4806 28.2842C86.5056 28.7166 86.546 29.1496 86.6085 29.5781C86.6821 30.0833 86.8319 30.5683 87.1106 31.004C87.2587 31.2355 87.4402 31.4355 87.6469 31.6191C88.1193 32.0389 88.6875 32.2128 89.2941 32.2975C89.9677 32.3915 90.6378 32.3318 91.3073 32.2478C91.3523 32.2408 91.3969 32.231 91.4408 32.2186C91.5105 32.2015 91.546 32.1528 91.5516 32.0833C91.5552 32.038 91.5543 31.9921 91.5543 31.9461L91.5523 27.8182C91.5523 27.8011 91.5523 27.7839 91.5523 27.7668C91.5552 27.5716 91.5735 27.5521 91.7697 27.5519C92.7856 27.5519 93.8015 27.5519 94.8173 27.5519C94.9975 27.5519 95.0254 27.577 95.0267 27.7577C95.0293 28.0545 95.0267 28.3515 95.0267 28.6484C95.0267 29.3678 95.0267 30.0872 95.0267 30.8065V31.0465L95.0392 31.0474Z" fill="white"/>
<path d="M104.847 25.3495C104.833 25.4299 104.832 25.4925 104.812 25.5488C104.711 25.8326 104.604 26.1147 104.501 26.3976C104.328 26.8744 104.155 27.3515 103.983 27.8288C103.9 28.0593 103.819 28.2904 103.738 28.5217C103.724 28.5622 103.717 28.6049 103.701 28.6678C103.781 28.6738 103.842 28.6824 103.902 28.6823C104.661 28.6809 105.42 28.6788 106.179 28.6761C106.196 28.6761 106.213 28.6773 106.231 28.6761C106.344 28.6685 106.371 28.6317 106.333 28.5217C106.279 28.3659 106.221 28.2115 106.165 28.0563C106.05 27.7405 105.938 27.4234 105.82 27.1087C105.632 26.6077 105.437 26.109 105.249 25.6078C105.102 25.2134 104.962 24.8172 104.814 24.4235C104.557 23.7357 104.294 23.0498 104.036 22.3623C103.878 21.9413 103.725 21.5183 103.566 21.0975C103.42 20.7094 103.268 20.3231 103.121 19.9355C103.092 19.8613 103.066 19.7856 103.045 19.7088C103.023 19.6303 103.053 19.5888 103.133 19.579C103.173 19.5756 103.213 19.5748 103.253 19.5766H106.539C106.741 19.5766 106.769 19.6001 106.841 19.7838C107.025 20.2492 107.214 20.7127 107.397 21.1782C107.545 21.5536 107.686 21.9328 107.834 22.3069C108.029 22.7998 108.23 23.2902 108.426 23.7827C108.584 24.1793 108.735 24.5785 108.894 24.9747C109.074 25.4231 109.262 25.8681 109.44 26.3168C109.541 26.5705 109.627 26.8297 109.725 27.0847C109.841 27.3871 109.962 27.6875 110.081 27.9886C110.225 28.3539 110.369 28.719 110.514 29.084C110.682 29.5079 110.852 29.9311 111.019 30.3552C111.176 30.752 111.329 31.1502 111.486 31.5465C111.635 31.9215 111.79 32.2942 111.939 32.669C112.137 33.1663 112.333 33.6648 112.53 34.1624C112.65 34.4642 112.771 34.7652 112.891 35.0668C112.907 35.1032 112.918 35.1415 112.925 35.1807C112.935 35.2556 112.901 35.3016 112.822 35.3055C112.788 35.3073 112.754 35.3066 112.72 35.3066C111.481 35.3066 110.243 35.305 109.005 35.309C108.874 35.309 108.792 35.2735 108.742 35.1457C108.606 34.7954 108.462 34.448 108.32 34.0997C108.13 33.6367 107.938 33.1737 107.75 32.7085C107.668 32.5085 107.593 32.306 107.516 32.1043C107.45 31.9328 107.402 31.9003 107.21 31.901C105.738 31.9053 104.266 31.9088 102.794 31.9114C102.671 31.9114 102.599 31.9565 102.56 32.0657C102.501 32.2264 102.444 32.3878 102.386 32.5488C102.248 32.9343 102.11 33.3198 101.973 33.7053C101.808 34.1669 101.641 34.628 101.478 35.0905C101.404 35.2994 101.383 35.3186 101.159 35.3179L97.5477 35.3064C97.303 35.3064 97.2802 35.2656 97.3735 35.032C97.5535 34.5824 97.7269 34.13 97.9074 33.6806C98.0534 33.3167 98.2104 32.9573 98.3536 32.5924C98.4948 32.2323 98.6231 31.8679 98.7606 31.5067C98.8633 31.2356 98.9708 30.966 99.0787 30.6968C99.1951 30.4067 99.3158 30.1184 99.4319 29.8283C99.669 29.236 99.905 28.6433 100.14 28.0502C100.297 27.6532 100.448 27.2542 100.607 26.858C100.719 26.5785 100.841 26.303 100.955 26.0243C101.031 25.8403 101.108 25.6563 101.171 25.4678C101.206 25.3665 101.266 25.3339 101.362 25.3367C101.396 25.3377 101.43 25.3367 101.465 25.3367C102.526 25.3367 103.587 25.3367 104.648 25.3367C104.707 25.3367 104.767 25.3442 104.847 25.3495Z" fill="white"/>
<path d="M72.0452 31.6326C72.0776 31.7032 72.1137 31.7668 72.1365 31.8347C72.22 32.0767 72.298 32.3205 72.3808 32.5628C72.4878 32.8748 72.5978 33.1858 72.7061 33.4974C72.794 33.7498 72.8804 34.0028 72.9686 34.255C72.991 34.3197 73.02 34.3821 73.0421 34.4466C73.0902 34.582 73.0772 34.6331 72.9443 34.6931C72.6847 34.8106 72.4241 34.9272 72.1567 35.025C71.8735 35.1279 71.5843 35.2169 71.2939 35.2993C71.0919 35.3563 70.884 35.3933 70.6776 35.4341C70.4156 35.4856 70.1526 35.5325 69.89 35.5811C69.817 35.5946 69.7443 35.6154 69.671 35.6179C69.0274 35.648 68.3868 35.7368 67.7398 35.6925C67.3873 35.6684 67.033 35.6562 66.6829 35.6128C66.3958 35.5771 66.1121 35.5099 65.8294 35.4449C65.525 35.3753 65.2164 35.3127 64.9219 35.2103C64.5779 35.0893 64.2416 34.9473 63.9148 34.7851C63.3062 34.4856 62.7567 34.0781 62.2933 33.5823C61.53 32.7671 61.0634 31.8022 60.8198 30.7172C60.5816 29.6574 60.523 28.5838 60.5215 27.503C60.5205 26.668 60.5677 25.837 60.6807 25.0102C60.7572 24.4444 60.8906 23.8878 61.079 23.3488C61.2557 22.8445 61.5084 22.3815 61.8152 21.9472C62.1719 21.4416 62.5905 20.9922 63.0908 20.6268C63.6224 20.2375 64.2008 19.9306 64.8285 19.7308C65.2569 19.5928 65.6924 19.4778 66.1331 19.3861C66.4962 19.3125 66.8646 19.2683 67.2347 19.2539C67.8042 19.2313 68.375 19.24 68.9452 19.2445C69.4588 19.2487 69.9656 19.3357 70.4723 19.4183C71.1029 19.5209 71.7237 19.677 72.3279 19.8849C72.5109 19.9479 72.6906 20.0221 72.8696 20.095C72.9895 20.1444 73.0088 20.1816 72.9724 20.3071C72.9342 20.438 72.8868 20.5662 72.8392 20.6943C72.7136 21.0356 72.5867 21.3764 72.4584 21.7167C72.3457 22.0146 72.2291 22.311 72.1147 22.6084C72.0759 22.7094 72.036 22.8101 72.0016 22.9126C71.974 22.9944 71.9202 23.0155 71.8423 22.9973C71.8086 22.992 71.7755 22.9834 71.7434 22.9716C71.4422 22.833 71.122 22.7562 70.8031 22.6741C70.2671 22.5346 69.7171 22.4564 69.1635 22.441C68.5875 22.4261 68.0103 22.4078 67.4385 22.5014C67.1123 22.5547 66.7901 22.6267 66.4879 22.7677C66.3444 22.8346 66.1927 22.8877 66.0576 22.9676C65.9272 23.0468 65.8059 23.1399 65.6957 23.2454C65.2847 23.6349 65.025 24.115 64.8598 24.6538C64.6778 25.2471 64.5898 25.8525 64.5636 26.4715C64.5415 26.9962 64.4987 27.5199 64.5317 28.0457C64.5518 28.3647 64.5564 28.685 64.5884 29.0027C64.647 29.5829 64.7463 30.1553 65.0033 30.687C65.3269 31.3573 65.8376 31.8236 66.5271 32.1038C67.0921 32.3329 67.6809 32.4197 68.2819 32.4399C68.9554 32.465 69.6295 32.4091 70.2897 32.2736C70.6638 32.1962 71.0282 32.0774 71.3761 31.9194C71.5674 31.8323 71.7589 31.7458 71.9506 31.6598C71.9814 31.6484 72.013 31.6393 72.0452 31.6326Z" fill="white"/>
<path d="M131.442 30.4671V35.0383C131.442 35.0669 131.443 35.0954 131.442 35.124C131.435 35.2686 131.4 35.3053 131.256 35.3063C130.987 35.308 130.719 35.3063 130.451 35.3063H127.97C127.769 35.3063 127.744 35.2819 127.744 35.0798C127.744 32.0037 127.744 28.9277 127.744 25.8516C127.744 25.8173 127.745 25.783 127.746 25.7488C127.746 25.6731 127.787 25.6333 127.86 25.6256C127.894 25.6231 127.928 25.6224 127.963 25.6236L131.214 25.6249C131.429 25.6249 131.441 25.6366 131.441 25.8614C131.442 27.3966 131.442 28.9319 131.442 30.4671Z" fill="white"/>
<path d="M79.9902 33.7124C79.9902 34.1915 79.9902 34.6706 79.9902 35.1497C79.9902 35.331 79.9787 35.3442 79.7955 35.3444C78.8265 35.3454 77.8573 35.3454 76.8881 35.3444C76.7032 35.3444 76.6919 35.3305 76.6919 35.1516C76.6919 34.1818 76.6919 33.2121 76.6919 32.2424C76.6919 32.055 76.7183 32.0289 76.9126 32.0288C77.8704 32.0278 78.8281 32.0278 79.7858 32.0288C79.9645 32.0288 79.9894 32.055 79.9897 32.2409C79.9907 32.7312 79.99 33.2218 79.9902 33.7124Z" fill="white"/>
<path d="M22.2256 25.549C22.2451 24.8459 22.755 24.2845 23.4804 24.2769C24.1958 24.2696 24.7442 24.8209 24.7534 25.5449C24.7621 26.2232 24.1797 26.7967 23.4929 26.7908C22.7793 26.7848 22.2422 26.2299 22.2256 25.549Z" fill="white"/>
<path d="M25.8575 40.4941C25.2791 40.4939 24.7109 40.3415 24.2098 40.0522L15.6473 35.1001C15.1471 34.81 14.7317 34.3934 14.4427 33.8921C14.1536 33.3907 14.001 32.8222 14 32.2433V10.2684C14.0171 10.1851 14.053 10.1069 14.1049 10.0397C14.1568 9.97249 14.2234 9.91809 14.2996 9.88066C14.7165 9.82494 15.1365 9.7963 15.557 9.79492C17.0614 9.79492 18.2291 10.2044 19.0285 11.0138C19.8332 11.828 20.2417 13.0241 20.2417 14.5691V16.8291L24.2098 14.5333C24.7108 14.2438 25.2789 14.0914 25.8573 14.0914C26.4356 14.0914 27.0038 14.2438 27.5047 14.5333L36.0673 19.4853C36.5674 19.7756 36.9828 20.1921 37.2719 20.6934C37.561 21.1948 37.7138 21.7632 37.7149 22.3422V32.2462C37.7138 32.8251 37.561 33.3937 37.2719 33.895C36.9828 34.3963 36.5674 34.813 36.0673 35.1032L27.5047 40.0553C27.0035 40.3434 26.4354 40.4947 25.8575 40.4941ZM26.4204 19.6472C22.1783 19.6472 18.7393 23.091 18.7391 27.3396C18.7389 31.5882 22.1777 35.0326 26.4197 35.0328C28.3622 35.0328 30.2325 34.2957 31.6542 32.97C31.7073 32.9121 31.7377 32.8369 31.7398 32.7582C31.7411 32.7302 31.7366 32.7023 31.7267 32.6761C31.7168 32.6499 31.7017 32.6259 31.6823 32.6058L26.6057 27.526C26.5807 27.5058 26.5599 27.4809 26.5446 27.4526C26.5292 27.4243 26.5196 27.3933 26.5162 27.3613C26.5128 27.3293 26.5157 27.297 26.5248 27.2661C26.5339 27.2353 26.549 27.2065 26.5692 27.1815C26.58 27.1681 26.5922 27.1559 26.6057 27.1452L26.9481 26.7875C28.1841 25.5022 31.4682 22.0879 31.5764 21.9798C31.6005 21.9579 31.6197 21.9312 31.6328 21.9014C31.6459 21.8716 31.6526 21.8394 31.6525 21.8068C31.6497 21.7429 31.6225 21.6824 31.5764 21.6381C30.1648 20.3553 28.3265 19.6455 26.4204 19.6472Z" fill="#45D91E"/>
</g>
<defs>
<filter id="filter0_d_1_2566" x="0.246887" y="0.62618" width="160.327" height="58.2054" filterUnits="userSpaceOnUse" color-interpolation-filters="sRGB">
<feFlood flood-opacity="0" result="BackgroundImageFix"/>
<feColorMatrix in="SourceAlpha" type="matrix" values="0 0 0 0 0 0 0 0 0 0 0 0 0 0 0 0 0 0 127 0" result="hardAlpha"/>
<feOffset dy="4.58437"/>
<feGaussianBlur stdDeviation="6.87656"/>
<feComposite in2="hardAlpha" operator="out"/>
<feColorMatrix type="matrix" values="0 0 0 0 0.157769 0 0 0 0 0.00375 0 0 0 0 0.225 0 0 0 0.56 0"/>
<feBlend mode="normal" in2="BackgroundImageFix" result="effect1_dropShadow_1_2566"/>
<feBlend mode="normal" in="SourceGraphic" in2="effect1_dropShadow_1_2566" result="shape"/>
</filter>
</defs>
</svg>
