<svg width="373" height="426" viewBox="0 0 373 426" fill="none" xmlns="http://www.w3.org/2000/svg">
<path d="M373 0.38587C344.574 145.087 316.916 285.543 289.257 426C288.105 426 286.953 425.614 285.8 425.614C293.483 312.94 300.782 200.652 308.464 84.1196C299.629 88.3641 293.099 91.4511 286.953 94.9239C257.758 110.745 228.947 127.723 199.369 142.386C192.454 145.859 180.546 145.473 173.247 142C137.906 123.864 103.718 104.185 64.5355 82.962C72.2183 199.88 79.9011 312.94 87.1998 425.614C86.0474 425.614 84.895 426 83.7425 426C56.0844 285.543 28.4264 145.087 0 0C39.9506 22.3804 75.6756 42.4457 111.785 62.5109C131.376 73.3152 151.351 83.7337 170.174 95.6956C182.082 103.027 191.686 102.255 203.594 95.6956C255.069 65.5978 306.928 37.0435 358.787 7.71739C362.244 5.78804 365.701 4.24457 373 0.38587Z" fill="#090D15"/>
</svg>
