<svg width="197" height="224" viewBox="0 0 197 224" fill="none" xmlns="http://www.w3.org/2000/svg">
<path d="M197 0.202899C181.987 76.2899 167.379 150.145 152.771 224C152.163 224 151.554 223.797 150.945 223.797C155.003 164.551 158.858 105.507 162.916 44.2319C158.249 46.4638 154.8 48.087 151.554 49.913C136.135 58.2319 120.919 67.1594 105.297 74.8696C101.645 76.6957 95.3553 76.4928 91.5005 74.6667C72.8352 65.1304 54.7786 54.7826 34.0844 43.6232C38.1421 105.101 42.1998 164.551 46.0546 223.797C45.4459 223.797 44.8373 224 44.2286 224C29.621 150.145 15.0134 76.2898 0 0C21.0999 11.7681 39.9681 22.3188 59.0391 32.8696C69.3862 38.5507 79.9361 44.029 89.8774 50.3188C96.1668 54.1739 101.239 53.7681 107.528 50.3188C134.715 34.4928 162.104 19.4783 189.493 4.05797C191.319 3.04348 193.145 2.23188 197 0.202899Z" fill="#12151D"/>
</svg>
