<svg width="166" height="32" viewBox="0 0 166 32" fill="none" xmlns="http://www.w3.org/2000/svg">
<path d="M28 0.0289855C25.8661 10.8986 23.7899 21.4493 21.7137 32C21.6272 32 21.5407 31.971 21.4542 31.971C22.0309 23.5072 22.5788 15.0725 23.1555 6.31884C22.4923 6.63768 22.0021 6.86957 21.5407 7.13044C19.3491 8.31884 17.1864 9.5942 14.966 10.6957C14.447 10.9565 13.553 10.9275 13.0051 10.6667C10.3522 9.30435 7.78579 7.82609 4.84449 6.23188C5.42122 15.0145 5.99794 23.5072 6.54583 31.971C6.45932 31.971 6.37281 32 6.2863 32C4.21009 21.4493 2.13388 10.8986 0 0C2.99897 1.68116 5.68074 3.18841 8.39135 4.69565C9.862 5.50725 11.3615 6.28986 12.7745 7.18841C13.6684 7.73913 14.3893 7.68116 15.2832 7.18841C19.1473 4.92754 23.0402 2.78261 26.9331 0.57971C27.1926 0.434783 27.4521 0.318841 28 0.0289855Z" fill="#505AB7"/>
<path d="M48.258 22.218C48.0127 22.7547 47.6907 23.023 47.292 23.023C46.8933 23.023 46.579 22.7623 46.349 22.241C45.9503 21.3823 44.4247 18.17 41.772 12.604L40.875 23H38.621L40.047 7.268H40.691C40.967 7.268 41.22 7.34467 41.45 7.498C41.6953 7.636 41.8793 7.83533 42.002 8.096L47.269 19.09L52.582 8.096C52.8427 7.544 53.2797 7.268 53.893 7.268H54.537L56.009 23H53.755L52.789 12.604L52.559 13.133C50.1823 18.1163 48.7487 21.1447 48.258 22.218ZM63.6806 22.931C63.2666 23.0383 62.8219 23.092 62.3466 23.092C61.6259 23.092 60.9436 22.9463 60.2996 22.655C59.6709 22.379 59.1266 21.988 58.6666 21.482C58.2066 21.0067 57.8462 20.4393 57.5856 19.78C57.3249 19.1207 57.1946 18.4153 57.1946 17.664C57.1946 16.9127 57.3249 16.2073 57.5856 15.548C57.8462 14.8887 58.2066 14.3137 58.6666 13.823C59.1266 13.317 59.6709 12.9183 60.2996 12.627C60.9282 12.3357 61.6106 12.19 62.3466 12.19C62.8219 12.19 63.2742 12.2513 63.7036 12.374C64.1329 12.4967 64.5239 12.673 64.8766 12.903C65.0452 13.0103 65.1986 13.1253 65.3366 13.248V12.213H65.5206C65.7812 12.213 66.0266 12.2667 66.2566 12.374C66.5019 12.4813 66.7089 12.6193 66.8776 12.788C67.0616 12.9567 67.2072 13.1637 67.3146 13.409C67.4219 13.6543 67.4756 13.9073 67.4756 14.168V22.931H67.2916C66.1722 22.931 65.5206 22.632 65.3366 22.034C65.1832 22.172 65.0146 22.3023 64.8306 22.425C64.4779 22.6397 64.0946 22.8083 63.6806 22.931ZM63.5196 14.628C63.1669 14.4593 62.7759 14.375 62.3466 14.375C61.9172 14.375 61.5262 14.4593 61.1736 14.628C60.8056 14.7967 60.4912 15.0267 60.2306 15.318C59.9699 15.6093 59.7629 15.962 59.6096 16.376C59.4562 16.7747 59.3796 17.204 59.3796 17.664C59.3796 18.124 59.4486 18.5533 59.5866 18.952C59.7399 19.3507 59.9546 19.6957 60.2306 19.987C60.4912 20.2783 60.8056 20.5083 61.1736 20.677C61.5262 20.8457 61.9172 20.93 62.3466 20.93C62.7759 20.93 63.1669 20.8457 63.5196 20.677C63.8722 20.5083 64.1789 20.286 64.4396 20.01C64.7002 19.7187 64.9072 19.3737 65.0606 18.975C65.2139 18.5763 65.2906 18.1393 65.2906 17.664C65.2906 17.204 65.2139 16.7747 65.0606 16.376C64.9226 15.9773 64.7156 15.6247 64.4396 15.318C64.1942 15.0267 63.8876 14.7967 63.5196 14.628ZM71.677 22.931H69.492V7.567H71.677V16.215C72.2444 15.6477 72.8577 15.0267 73.517 14.352C74.3144 13.5547 74.8587 12.995 75.15 12.673C75.4414 12.3663 75.909 12.213 76.553 12.213C76.9517 12.213 77.3427 12.2973 77.726 12.466C77.8334 12.512 77.8947 12.5963 77.91 12.719C77.9254 12.8417 77.8947 12.9413 77.818 13.018L74.713 16.215C74.6824 16.2457 74.6824 16.2763 74.713 16.307C75.081 16.7823 76.1544 18.17 77.933 20.47C78.577 21.2827 79.0524 21.8807 79.359 22.264C79.4357 22.3713 79.4587 22.4787 79.428 22.586C79.3974 22.678 79.3207 22.7393 79.198 22.77C78.8454 22.8773 78.4927 22.931 78.14 22.931C77.358 22.931 76.7907 22.701 76.438 22.241C74.368 19.573 73.1567 18.009 72.804 17.549C72.666 17.3803 72.5204 17.2577 72.367 17.181C72.2137 17.1043 71.9837 17.0583 71.677 17.043V22.931ZM86.6058 22.816C86.0845 23 85.5172 23.092 84.9038 23.092C84.1525 23.092 83.4472 22.9463 82.7878 22.655C82.1132 22.379 81.5305 21.9957 81.0398 21.505C80.5492 21.0143 80.1582 20.4393 79.8668 19.78C79.5908 19.1053 79.4528 18.3923 79.4528 17.641C79.4528 16.8897 79.5908 16.1843 79.8668 15.525C80.1428 14.8657 80.5185 14.2907 80.9938 13.8C81.4692 13.3093 82.0288 12.9183 82.6728 12.627C83.3168 12.3357 83.9992 12.19 84.7198 12.19C85.4252 12.19 86.0845 12.328 86.6978 12.604C87.3265 12.88 87.8708 13.2557 88.3308 13.731C88.8062 14.2063 89.1742 14.7737 89.4348 15.433C89.7108 16.077 89.8488 16.7747 89.8488 17.526C89.8488 17.9553 89.6878 18.2543 89.3658 18.423C89.1665 18.515 88.9288 18.561 88.6528 18.561H81.7298C81.7912 18.7603 81.8678 18.952 81.9598 19.136C82.1438 19.504 82.3815 19.8183 82.6728 20.079C82.9642 20.355 83.3015 20.5697 83.6848 20.723C84.0528 20.8763 84.4515 20.953 84.8808 20.953C85.2488 20.953 85.6015 20.8993 85.9388 20.792L86.0998 20.723C86.3912 20.6157 86.6288 20.562 86.8128 20.562C87.3495 20.562 87.8708 20.907 88.3768 21.597L88.4918 21.735L88.3538 21.85C88.2465 21.9573 88.1392 22.0417 88.0318 22.103C87.5872 22.4097 87.1118 22.6473 86.6058 22.816ZM85.8008 14.559C85.4635 14.421 85.1032 14.352 84.7198 14.352C84.3365 14.352 83.9762 14.421 83.6388 14.559C83.2862 14.697 82.9718 14.8887 82.6958 15.134C82.4658 15.3487 82.2282 15.6553 81.9828 16.054C81.8755 16.2227 81.7988 16.4143 81.7528 16.629C81.8755 16.5523 81.9905 16.514 82.0978 16.514H87.5718C87.5258 16.3453 87.4568 16.1843 87.3648 16.031C87.1962 15.6937 86.9738 15.4023 86.6978 15.157C86.4372 14.8963 86.1382 14.697 85.8008 14.559ZM93.4406 22.931H91.2786V12.213H93.4406V22.931ZM93.7626 10.12C93.7626 10.5033 93.6246 10.833 93.3486 11.109C93.0879 11.3697 92.7659 11.5 92.3826 11.5C91.9993 11.5 91.6696 11.3697 91.3936 11.109C91.1329 10.833 91.0026 10.5033 91.0026 10.12C91.0026 9.73667 91.1329 9.41467 91.3936 9.154C91.6696 8.878 91.9993 8.74 92.3826 8.74C92.7659 8.74 93.0879 8.878 93.3486 9.154C93.6246 9.41467 93.7626 9.73667 93.7626 10.12ZM105.529 22.724C104.732 23 103.873 23.138 102.953 23.138C101.849 23.138 100.807 22.931 99.8253 22.517C98.8593 22.103 98.0159 21.5357 97.2953 20.815C96.5746 20.079 95.9996 19.2203 95.5703 18.239C95.1563 17.273 94.9493 16.2303 94.9493 15.111C94.9493 14.375 95.0413 13.6697 95.2253 12.995C95.4246 12.305 95.6929 11.6687 96.0303 11.086C96.3829 10.488 96.8046 9.94367 97.2953 9.453C97.7859 8.96233 98.3303 8.54067 98.9283 8.188C99.5263 7.83533 100.163 7.567 100.837 7.383C101.527 7.18367 102.24 7.084 102.976 7.084C103.927 7.084 104.816 7.23733 105.644 7.544C106.457 7.85067 107.216 8.27233 107.921 8.809L108.059 8.901L107.99 9.016C107.868 9.27667 107.607 9.52967 107.208 9.775C106.825 10.0203 106.426 10.143 106.012 10.143C105.736 10.143 105.483 10.0817 105.253 9.959C104.425 9.52967 103.689 9.315 103.045 9.315C102.493 9.315 101.972 9.384 101.481 9.522C100.975 9.66 100.5 9.85933 100.055 10.12C99.6106 10.3653 99.2119 10.672 98.8593 11.04C98.5066 11.3927 98.1999 11.7913 97.9393 12.236C97.6939 12.6653 97.5023 13.1253 97.3643 13.616C97.2263 14.1067 97.1573 14.6127 97.1573 15.134C97.1573 15.6707 97.2263 16.1843 97.3643 16.675C97.5023 17.1657 97.6939 17.6257 97.9393 18.055C98.1999 18.4843 98.5066 18.8753 98.8593 19.228C99.2273 19.5807 99.6259 19.8873 100.055 20.148C100.485 20.3933 100.945 20.585 101.435 20.723C101.926 20.861 102.432 20.93 102.953 20.93C103.061 20.93 103.229 20.9223 103.459 20.907L103.689 20.884C103.827 20.8533 103.988 20.8227 104.172 20.792C104.249 20.7767 104.341 20.746 104.448 20.7C104.617 20.654 104.755 20.6157 104.862 20.585C104.924 20.5543 105.008 20.516 105.115 20.47L105.299 20.401C105.422 20.3397 105.514 20.2937 105.575 20.263C105.79 20.1557 105.989 20.0483 106.173 19.941V17.802H102.999V17.319C102.999 16.8437 103.168 16.4373 103.505 16.1C103.843 15.7627 104.249 15.594 104.724 15.594H107.461C107.63 15.594 107.783 15.6323 107.921 15.709C108.059 15.7857 108.167 15.893 108.243 16.031C108.32 16.1537 108.358 16.2993 108.358 16.468V20.677C108.343 21.045 108.19 21.3057 107.898 21.459C107.561 21.7197 107.201 21.9573 106.817 22.172C106.449 22.3713 106.058 22.5477 105.644 22.701L105.483 22.563L105.529 22.724ZM116.037 22.931C115.623 23.0383 115.178 23.092 114.703 23.092C113.982 23.092 113.3 22.9463 112.656 22.655C112.027 22.379 111.483 21.988 111.023 21.482C110.563 21.0067 110.203 20.4393 109.942 19.78C109.681 19.1207 109.551 18.4153 109.551 17.664C109.551 16.9127 109.681 16.2073 109.942 15.548C110.203 14.8887 110.563 14.3137 111.023 13.823C111.483 13.317 112.027 12.9183 112.656 12.627C113.285 12.3357 113.967 12.19 114.703 12.19C115.178 12.19 115.631 12.2513 116.06 12.374C116.489 12.4967 116.88 12.673 117.233 12.903C117.402 13.0103 117.555 13.1253 117.693 13.248V12.213H117.877C118.138 12.213 118.383 12.2667 118.613 12.374C118.858 12.4813 119.065 12.6193 119.234 12.788C119.418 12.9567 119.564 13.1637 119.671 13.409C119.778 13.6543 119.832 13.9073 119.832 14.168V22.931H119.648C118.529 22.931 117.877 22.632 117.693 22.034C117.54 22.172 117.371 22.3023 117.187 22.425C116.834 22.6397 116.451 22.8083 116.037 22.931ZM115.876 14.628C115.523 14.4593 115.132 14.375 114.703 14.375C114.274 14.375 113.883 14.4593 113.53 14.628C113.162 14.7967 112.848 15.0267 112.587 15.318C112.326 15.6093 112.119 15.962 111.966 16.376C111.813 16.7747 111.736 17.204 111.736 17.664C111.736 18.124 111.805 18.5533 111.943 18.952C112.096 19.3507 112.311 19.6957 112.587 19.987C112.848 20.2783 113.162 20.5083 113.53 20.677C113.883 20.8457 114.274 20.93 114.703 20.93C115.132 20.93 115.523 20.8457 115.876 20.677C116.229 20.5083 116.535 20.286 116.796 20.01C117.057 19.7187 117.264 19.3737 117.417 18.975C117.57 18.5763 117.647 18.1393 117.647 17.664C117.647 17.204 117.57 16.7747 117.417 16.376C117.279 15.9773 117.072 15.6247 116.796 15.318C116.551 15.0267 116.244 14.7967 115.876 14.628ZM137.396 14.95C137.611 15.502 137.718 16.0847 137.718 16.698V22.908H135.556V16.675C135.541 16.3683 135.472 16.0617 135.349 15.755C135.242 15.4637 135.081 15.2183 134.866 15.019C134.667 14.8043 134.429 14.6357 134.153 14.513C133.877 14.3903 133.563 14.329 133.21 14.329C132.888 14.329 132.589 14.3903 132.313 14.513C132.022 14.6357 131.769 14.7967 131.554 14.996C131.34 15.1953 131.171 15.433 131.048 15.709C130.926 15.985 130.857 16.284 130.841 16.606V16.629C130.841 16.629 130.841 16.6443 130.841 16.675C130.857 16.6903 130.864 16.698 130.864 16.698V22.908H130.841V22.931H128.679L128.702 22.563V16.675C128.687 16.3683 128.618 16.0617 128.495 15.755C128.373 15.4637 128.212 15.2183 128.012 15.019C127.813 14.8043 127.575 14.6357 127.299 14.513C127.023 14.3903 126.701 14.329 126.333 14.329C126.027 14.329 125.728 14.3903 125.436 14.513C125.145 14.6357 124.9 14.7967 124.7 14.996C124.486 15.1953 124.309 15.433 124.171 15.709C124.049 15.985 123.987 16.284 123.987 16.606V22.931H121.825V12.213H123.987V13.018C124.125 12.9107 124.271 12.811 124.424 12.719C124.731 12.5503 125.061 12.42 125.413 12.328C125.766 12.236 126.126 12.19 126.494 12.19C127.108 12.19 127.683 12.305 128.219 12.535C128.756 12.7803 129.224 13.11 129.622 13.524C129.653 13.5547 129.691 13.6083 129.737 13.685C129.799 13.7463 129.837 13.7847 129.852 13.8C130.358 13.3707 130.834 13.018 131.278 12.742C131.539 12.5733 131.869 12.4353 132.267 12.328C132.62 12.236 132.98 12.19 133.348 12.19C133.977 12.19 134.56 12.305 135.096 12.535C135.633 12.7803 136.093 13.11 136.476 13.524C136.875 13.9227 137.182 14.398 137.396 14.95ZM141.619 22.931H139.457V12.213H141.619V22.931ZM141.941 10.12C141.941 10.5033 141.803 10.833 141.527 11.109C141.267 11.3697 140.945 11.5 140.561 11.5C140.178 11.5 139.848 11.3697 139.572 11.109C139.312 10.833 139.181 10.5033 139.181 10.12C139.181 9.73667 139.312 9.41467 139.572 9.154C139.848 8.878 140.178 8.74 140.561 8.74C140.945 8.74 141.267 8.878 141.527 9.154C141.803 9.41467 141.941 9.73667 141.941 10.12ZM143.455 22.931V12.213H145.617V13.018C145.755 12.9107 145.901 12.8187 146.054 12.742C146.361 12.558 146.691 12.42 147.043 12.328C147.396 12.236 147.756 12.19 148.124 12.19C148.738 12.19 149.313 12.3127 149.849 12.558C150.386 12.788 150.846 13.11 151.229 13.524C151.628 13.9227 151.935 14.398 152.149 14.95C152.379 15.502 152.494 16.0847 152.494 16.698V22.908H150.332V16.675C150.317 16.3683 150.248 16.0617 150.125 15.755C150.003 15.479 149.842 15.2337 149.642 15.019C149.443 14.8043 149.205 14.6357 148.929 14.513C148.653 14.3903 148.331 14.329 147.963 14.329C147.657 14.329 147.358 14.3903 147.066 14.513C146.79 14.6357 146.545 14.7967 146.33 14.996C146.116 15.1953 145.939 15.433 145.801 15.709C145.679 15.985 145.617 16.284 145.617 16.606V22.931H143.455ZM161.042 27.232C160.413 27.462 159.769 27.577 159.11 27.577C158.558 27.577 158.06 27.508 157.615 27.37C157.17 27.232 156.749 27.0557 156.35 26.841L156.235 26.772C156.174 26.726 156.12 26.68 156.074 26.634L155.982 26.542L156.051 26.427C156.557 25.553 157.109 25.116 157.707 25.116C157.86 25.116 158.06 25.1543 158.305 25.231L158.397 25.254C158.642 25.3153 158.865 25.346 159.064 25.346C159.447 25.346 159.823 25.2847 160.191 25.162C160.544 25.024 160.858 24.8323 161.134 24.587C161.441 24.311 161.655 23.9967 161.778 23.644C161.947 23.23 162.031 22.7087 162.031 22.08C161.862 22.218 161.686 22.3407 161.502 22.448C161.149 22.6627 160.766 22.8237 160.352 22.931C159.938 23.0383 159.501 23.092 159.041 23.092C158.32 23.092 157.638 22.9463 156.994 22.655C156.365 22.379 155.821 21.988 155.361 21.482C154.901 21.0067 154.541 20.4393 154.28 19.78C154.019 19.1207 153.889 18.4153 153.889 17.664C153.889 16.9127 154.019 16.2073 154.28 15.548C154.541 14.8887 154.901 14.3137 155.361 13.823C155.821 13.317 156.365 12.9183 156.994 12.627C157.623 12.3357 158.305 12.19 159.041 12.19C159.516 12.19 159.969 12.2513 160.398 12.374C160.843 12.4967 161.249 12.673 161.617 12.903C161.816 13.0257 162 13.1637 162.169 13.317C162.246 12.995 162.414 12.7343 162.675 12.535C162.951 12.3203 163.265 12.213 163.618 12.213H164.262V20.999C164.262 21.7043 164.254 22.103 164.239 22.195C164.254 23.0537 164.116 23.828 163.825 24.518C163.549 25.1927 163.173 25.76 162.698 26.22C162.223 26.68 161.671 27.0173 161.042 27.232ZM160.237 14.628C159.869 14.4593 159.47 14.375 159.041 14.375C158.612 14.375 158.221 14.4593 157.868 14.628C157.5 14.7967 157.186 15.0267 156.925 15.318C156.664 15.6093 156.457 15.962 156.304 16.376C156.151 16.7747 156.074 17.204 156.074 17.664C156.074 18.124 156.151 18.5533 156.304 18.952C156.457 19.3507 156.664 19.6957 156.925 19.987C157.186 20.2783 157.5 20.5083 157.868 20.677C158.221 20.8457 158.612 20.93 159.041 20.93C159.47 20.93 159.869 20.8457 160.237 20.677C160.605 20.5083 160.927 20.2783 161.203 19.987C161.464 19.6957 161.678 19.3507 161.847 18.952C162 18.5533 162.077 18.124 162.077 17.664C162.077 17.204 162 16.7747 161.847 16.376C161.694 15.9773 161.479 15.6323 161.203 15.341C160.927 15.0343 160.605 14.7967 160.237 14.628Z" fill="white"/>
</svg>
