<svg width="197" height="58" viewBox="0 0 197 58" fill="none" xmlns="http://www.w3.org/2000/svg">
<g filter="url(#filter0_d_1_2628)">
<path fill-rule="evenodd" clip-rule="evenodd" d="M25.421 16.4789C23.7875 13.3901 20.8644 11.7495 17.4518 12.0311C14.3494 12.2872 11.7549 14.4861 11.1161 17.4008C10.9591 18.1174 10.9617 19.4935 11.1217 20.3358C11.2818 21.1786 11.7682 22.502 12.2376 23.3717C13.0325 24.8446 13.8196 25.9125 16.5677 29.2459C18.941 32.1248 19.8187 33.2165 20.7512 34.4493C23.2107 37.7008 24.6883 40.3589 25.4918 42.9791C25.4992 43.0032 25.5065 43.0272 25.5138 43.0513C25.5261 43.0919 25.5384 43.1323 25.5506 43.1721C25.595 43.3166 25.6383 43.4534 25.6762 43.5692C25.7348 43.7484 25.7805 43.8773 25.7967 43.9065C25.8667 44.0324 26.0925 44.0308 26.1775 43.9038C26.1954 43.877 26.2374 43.7753 26.2908 43.6322C26.2908 43.6322 26.2908 43.6322 26.2908 43.6322C26.3366 43.5097 26.3908 43.3568 26.4456 43.1947C26.4575 43.1596 26.4694 43.1241 26.4812 43.0884C26.4917 43.0567 26.5023 43.0249 26.513 42.9932C27.3746 40.4392 28.9193 37.7129 31.2024 34.7161C32.1668 33.4504 33.1087 32.3026 35.0364 30.0441C36.7104 28.0829 37.9276 26.5185 38.6022 25.4612C41.4943 20.9284 41.7723 17.2275 39.4247 14.5109C38.5238 13.4684 37.5123 12.8075 36.1687 12.3832C35.2702 12.0995 34.6661 12.0122 33.6118 12.0136C31.258 12.0168 29.3042 12.9385 27.6625 14.82C27.1622 15.3934 26.8201 15.8785 26.5065 16.4763C26.416 16.6488 26.3279 16.8308 26.239 17.027L25.9721 17.6163L25.6174 16.8703C25.592 16.8168 25.5662 16.7637 25.54 16.711C25.5011 16.6328 25.4615 16.5554 25.421 16.4789ZM24.739 17.287C23.3153 14.2925 20.6625 12.7408 17.5318 12.9992C14.8303 13.2221 12.6082 15.1343 12.066 17.6085C12.0093 17.8674 11.9715 18.3106 11.9724 18.8193C11.9734 19.3214 12.0119 19.8119 12.0771 20.1547C12.216 20.8861 12.6644 22.1157 13.0935 22.9108C13.8378 24.2898 14.5669 25.2909 17.3183 28.6284C19.6917 31.5073 20.5811 32.613 21.5271 33.8637C23.6739 36.7019 25.119 39.1399 26.0216 41.5265C26.9701 39.1893 28.4361 36.7431 30.4286 34.1279C31.4094 32.8405 32.3651 31.6765 34.2964 29.4139C35.9649 27.4591 37.1456 25.9369 37.7822 24.9391C39.1786 22.7506 39.8873 20.8476 40.0086 19.2323C40.1275 17.65 39.6881 16.3022 38.6886 15.1456C37.9082 14.2426 37.0514 13.6806 35.8756 13.3093C35.083 13.059 34.5793 12.9836 33.6131 12.9849C31.559 12.9877 29.8658 13.7732 28.3956 15.4582C27.8118 16.1272 27.4818 16.6397 27.125 17.4274L25.9935 19.9254L24.739 17.287Z" fill="#505AB7"/>
</g>
<g filter="url(#filter1_d_1_2628)">
<path fill-rule="evenodd" clip-rule="evenodd" d="M116.156 13.8782C117.359 12.7077 119.15 12 121.587 12C123.999 12 125.764 12.6939 126.938 13.8519C128.109 15.0058 128.637 16.563 128.693 18.1821C128.777 20.5553 127.853 23.1595 126.313 25.0503C128.459 24.6139 130.728 24.992 132.525 25.9925C135.026 27.3852 136.661 30.0219 135.741 33.3668C135.281 35.0393 134.397 36.2359 133.263 37.0049C132.135 37.7701 130.793 38.0896 129.446 38.0712C127.418 38.0434 125.313 37.2471 123.796 35.9524C124.394 38.5846 125.115 40.1968 125.813 41.3092C126.233 41.9791 126.651 42.4789 127.047 42.9227C127.132 43.0178 127.218 43.1121 127.303 43.2062C127.607 43.5413 127.909 43.8734 128.165 44.2279L128.724 45H114.592L115.146 44.229C115.34 43.9605 115.564 43.6911 115.79 43.4208C115.909 43.2777 116.029 43.1344 116.144 42.9908C116.49 42.5588 116.854 42.0605 117.216 41.3905C117.821 40.2715 118.436 38.6467 118.938 36.0223C117.455 37.34 115.406 38.1634 113.422 38.1943C112.115 38.2146 110.813 37.8913 109.715 37.1152C108.613 36.3365 107.751 35.1268 107.287 33.4381C106.81 31.7046 106.949 30.1769 107.544 28.9065C108.137 27.6404 109.166 26.6683 110.404 26.0074C112.206 25.0462 114.488 24.7237 116.65 25.1214C115.088 23.2737 114.186 20.647 114.311 18.2472C114.396 16.6168 114.957 15.0444 116.156 13.8782ZM115.3 18.2973C115.148 21.2278 116.709 24.4949 119.002 25.8801L118.53 26.7372C116.086 25.5876 113.058 25.7022 110.876 26.8664C109.792 27.445 108.932 28.2733 108.444 29.316C107.957 30.3543 107.82 31.6436 108.243 33.1826C108.656 34.6828 109.399 35.69 110.292 36.3213C111.189 36.9553 112.274 37.2353 113.407 37.2176C115.693 37.182 118.086 35.9355 119.3 34.1358L120.203 34.477C119.651 38.1927 118.886 40.3783 118.09 41.8498C117.692 42.5862 117.292 43.1342 116.921 43.5966C116.796 43.7522 116.68 43.892 116.571 44.0232H126.714C126.673 43.9774 126.631 43.9309 126.588 43.8833C126.497 43.7833 126.402 43.6789 126.303 43.5679C125.889 43.1038 125.431 42.5579 124.97 41.8227C124.047 40.3503 123.139 38.1625 122.472 34.3891L123.372 34.0332C124.59 35.8225 127.073 37.0618 129.46 37.0945C130.643 37.1107 131.773 36.8298 132.701 36.2002C133.624 35.5743 134.38 34.5816 134.784 33.1113C135.565 30.2727 134.217 28.0569 132.037 26.8429C129.833 25.6154 126.827 25.4507 124.442 26.76L123.925 25.9278C126.212 24.4159 127.805 21.1231 127.703 18.2159C127.653 16.7777 127.189 15.4797 126.238 14.5426C125.291 13.6096 123.803 12.9768 121.587 12.9768C119.35 12.9768 117.83 13.6217 116.852 14.5735C115.869 15.5295 115.376 16.8491 115.3 18.2973Z" fill="#505AB7"/>
</g>
<g filter="url(#filter2_d_1_2628)">
<path fill-rule="evenodd" clip-rule="evenodd" d="M64.2866 26.4856C67.9694 31.4167 71.506 36.5453 74.5037 41.8654C77.5344 36.4799 80.8424 31.3098 84.6822 26.481C80.9428 21.5219 77.5012 16.3067 74.4846 11.0672C71.3119 16.3949 67.8247 21.5359 64.2866 26.4856ZM73.8951 10.0334C70.5316 15.7275 66.7939 21.2164 63 26.5C66.9631 31.7709 70.7583 37.246 73.9123 42.9253C74.1108 43.2827 74.3067 43.641 74.5 44C74.6967 43.6415 74.8945 43.284 75.0934 42.9275C78.3235 37.1385 81.8534 31.6145 86 26.5C81.9742 21.2249 78.2846 15.6429 75.0893 10.0429C74.8909 9.69535 74.6945 9.34767 74.5 9C74.2998 9.34521 74.0981 9.68967 73.8951 10.0334Z" fill="#505AB7"/>
</g>
<g filter="url(#filter3_d_1_2628)">
<path fill-rule="evenodd" clip-rule="evenodd" d="M172.245 10L172.615 10.511C172.705 10.635 172.84 10.863 173.028 11.1807C174.026 12.8706 176.524 17.0982 181.742 21.7031L181.758 21.7174L181.773 21.7331C186.65 26.8594 186.913 31.8285 184.555 34.9062C182.391 37.731 178.178 38.7264 174.003 36.7802C174.536 38.9365 175.056 40.1573 175.551 40.9796C175.835 41.4518 176.117 41.8032 176.406 42.1356C176.481 42.223 176.56 42.3114 176.64 42.4017C176.859 42.6474 177.09 42.9072 177.312 43.1974L177.928 44H166.904L167.397 43.2319C167.577 42.95 167.759 42.6974 167.934 42.4552C168 42.3625 168.066 42.2712 168.13 42.1805C168.366 41.8471 168.603 41.4888 168.86 41.0047C169.301 40.1721 169.808 38.9479 170.443 36.8245C166.341 38.8392 161.919 38.0686 159.593 35.3669C158.322 33.8907 157.716 31.8717 158.129 29.5177C158.539 27.1755 159.953 24.5269 162.666 21.7296L162.674 21.7213L162.683 21.7133C167.327 17.3548 170.054 13.1815 171.244 11.3594C171.53 10.9226 171.727 10.6209 171.841 10.4842L172.245 10ZM163.362 22.4345C160.744 25.1358 159.464 27.6084 159.099 29.6913C158.735 31.7644 159.271 33.4758 160.337 34.7138C162.481 37.2051 166.927 37.9144 170.989 35.3863L172.063 34.7177L171.722 35.9445C170.921 38.8264 170.292 40.411 169.729 41.4743C169.446 42.0081 169.183 42.4039 168.932 42.7587C168.872 42.8441 168.814 42.9254 168.757 43.0046H175.852C175.791 42.9361 175.729 42.8657 175.665 42.7921C175.355 42.4359 175.033 42.0363 174.708 41.4965C174.06 40.4192 173.427 38.8264 172.799 35.9498L172.559 34.8507L173.525 35.4109C177.664 37.8098 181.803 36.872 183.776 34.297C185.721 31.7587 185.746 27.3548 181.077 22.4383C175.767 17.7475 173.163 13.3633 172.196 11.7171C172.188 11.7294 172.18 11.7418 172.172 11.7544C171.098 13.4096 168.179 17.9116 163.362 22.4345Z" fill="#505AB7"/>
</g>
<defs>
<filter id="filter0_d_1_2628" x="0" y="3" width="52" height="54" filterUnits="userSpaceOnUse" color-interpolation-filters="sRGB">
<feFlood flood-opacity="0" result="BackgroundImageFix"/>
<feColorMatrix in="SourceAlpha" type="matrix" values="0 0 0 0 0 0 0 0 0 0 0 0 0 0 0 0 0 0 127 0" result="hardAlpha"/>
<feOffset dy="2"/>
<feGaussianBlur stdDeviation="5.5"/>
<feComposite in2="hardAlpha" operator="out"/>
<feColorMatrix type="matrix" values="0 0 0 0 0.313726 0 0 0 0 0.352941 0 0 0 0 0.717647 0 0 0 1 0"/>
<feBlend mode="normal" in2="BackgroundImageFix" result="effect1_dropShadow_1_2628"/>
<feBlend mode="normal" in="SourceGraphic" in2="effect1_dropShadow_1_2628" result="shape"/>
</filter>
<filter id="filter1_d_1_2628" x="96" y="3" width="51" height="55" filterUnits="userSpaceOnUse" color-interpolation-filters="sRGB">
<feFlood flood-opacity="0" result="BackgroundImageFix"/>
<feColorMatrix in="SourceAlpha" type="matrix" values="0 0 0 0 0 0 0 0 0 0 0 0 0 0 0 0 0 0 127 0" result="hardAlpha"/>
<feOffset dy="2"/>
<feGaussianBlur stdDeviation="5.5"/>
<feComposite in2="hardAlpha" operator="out"/>
<feColorMatrix type="matrix" values="0 0 0 0 0.313726 0 0 0 0 0.352941 0 0 0 0 0.717647 0 0 0 1 0"/>
<feBlend mode="normal" in2="BackgroundImageFix" result="effect1_dropShadow_1_2628"/>
<feBlend mode="normal" in="SourceGraphic" in2="effect1_dropShadow_1_2628" result="shape"/>
</filter>
<filter id="filter2_d_1_2628" x="52" y="0" width="45" height="57" filterUnits="userSpaceOnUse" color-interpolation-filters="sRGB">
<feFlood flood-opacity="0" result="BackgroundImageFix"/>
<feColorMatrix in="SourceAlpha" type="matrix" values="0 0 0 0 0 0 0 0 0 0 0 0 0 0 0 0 0 0 127 0" result="hardAlpha"/>
<feOffset dy="2"/>
<feGaussianBlur stdDeviation="5.5"/>
<feComposite in2="hardAlpha" operator="out"/>
<feColorMatrix type="matrix" values="0 0 0 0 0.313726 0 0 0 0 0.352941 0 0 0 0 0.717647 0 0 0 1 0"/>
<feBlend mode="normal" in2="BackgroundImageFix" result="effect1_dropShadow_1_2628"/>
<feBlend mode="normal" in="SourceGraphic" in2="effect1_dropShadow_1_2628" result="shape"/>
</filter>
<filter id="filter3_d_1_2628" x="147" y="1" width="50" height="56" filterUnits="userSpaceOnUse" color-interpolation-filters="sRGB">
<feFlood flood-opacity="0" result="BackgroundImageFix"/>
<feColorMatrix in="SourceAlpha" type="matrix" values="0 0 0 0 0 0 0 0 0 0 0 0 0 0 0 0 0 0 127 0" result="hardAlpha"/>
<feOffset dy="2"/>
<feGaussianBlur stdDeviation="5.5"/>
<feComposite in2="hardAlpha" operator="out"/>
<feColorMatrix type="matrix" values="0 0 0 0 0.313726 0 0 0 0 0.352941 0 0 0 0 0.717647 0 0 0 1 0"/>
<feBlend mode="normal" in2="BackgroundImageFix" result="effect1_dropShadow_1_2628"/>
<feBlend mode="normal" in="SourceGraphic" in2="effect1_dropShadow_1_2628" result="shape"/>
</filter>
</defs>
</svg>
